# xmcd
#
# Track frame offsets:
#	150
#	21222
#	46965
#	67200
#	72062
#	87215
#	98147
#	113565
#	128082
#	140532
#	160585
#	182905
#
# Disc length: 2682 seconds
#
# Revision: 1
# Processed by: cddbd v1.5.1PL0 Copyright (c) Steve Scherf et al.
# Submitted via: CDex 1.50Beta5
#
DISCID=9e0a780c
DTITLE=DREAM DOLPHIN - COSMIC BLUE
DYEAR=1996
DGENRE=Pop
TTITLE0=地球のうた
TTITLE1=コズミック・ブルー
TTITLE2=ジャングル・ビヨンド・ジ・ウルトラワールド
TTITLE3=ピース・ブルー・イン・ザ・スペース
TTITLE4=ホワット・イズ・トリップホップ
TTITLE5=ワープ・トゥ・ザ・プラネット・ゴー・ゴー
TTITLE6=ベイビー・ベティー
TTITLE7=ボーイズフレンズ・キス・ミー
TTITLE8=スキッパー・ア・ゴー・ゴー
TTITLE9=スポーツ
TTITLE10=ハッピー・サーファーズ・ディライト
TTITLE11=スマイルズ・アンド・ティアーズ
EXTD=
EXTT0=
EXTT1=
EXTT2=
EXTT3=
EXTT4=
EXTT5=
EXTT6=
EXTT7=
EXTT8=
EXTT9=
EXTT10=
EXTT11=
PLAYORDER=
